<svg width="144" height="144" viewBox="0 0 144 144" fill="none" xmlns="http://www.w3.org/2000/svg">
<g filter="url(#filter0_d_17_62)">
<circle cx="72" cy="57" r="28" fill="white"/>
</g>
<path d="M78.6667 46.3334C78.313 46.3334 77.9739 46.1929 77.7239 45.9429C77.4738 45.6928 77.3333 45.3537 77.3333 45.0001C77.3333 44.6465 77.4738 44.3073 77.7239 44.0573C77.9739 43.8072 78.313 43.6667 78.6667 43.6667H84C84.3536 43.6667 84.6928 43.8072 84.9428 44.0573C85.1929 44.3073 85.3333 44.6465 85.3333 45.0001V50.3334C85.3333 50.687 85.1929 51.0262 84.9428 51.2762C84.6928 51.5263 84.3536 51.6667 84 51.6667C83.6464 51.6667 83.3072 51.5263 83.0572 51.2762C82.8071 51.0262 82.6667 50.687 82.6667 50.3334V48.2187L74.9427 55.9427C74.6926 56.1927 74.3536 56.3331 74 56.3331C73.6464 56.3331 73.3074 56.1927 73.0573 55.9427L69.3333 52.2187L62.276 59.2761C62.0245 59.519 61.6877 59.6533 61.3381 59.6503C60.9885 59.6473 60.6541 59.507 60.4069 59.2598C60.1597 59.0126 60.0195 58.6782 60.0164 58.3286C60.0134 57.979 60.1478 57.6422 60.3907 57.3907L68.3907 49.3907C68.6407 49.1408 68.9798 49.0004 69.3333 49.0004C69.6869 49.0004 70.026 49.1408 70.276 49.3907L74 53.1147L80.7813 46.3334H78.6667ZM62.6667 65.0001V69.0001C62.6667 69.3537 62.5262 69.6928 62.2761 69.9429C62.0261 70.1929 61.687 70.3334 61.3333 70.3334C60.9797 70.3334 60.6406 70.1929 60.3905 69.9429C60.1405 69.6928 60 69.3537 60 69.0001V65.0001C60 64.6465 60.1405 64.3073 60.3905 64.0573C60.6406 63.8072 60.9797 63.6667 61.3333 63.6667C61.687 63.6667 62.0261 63.8072 62.2761 64.0573C62.5262 64.3073 62.6667 64.6465 62.6667 65.0001ZM69.3333 59.6667C69.3333 59.3131 69.1929 58.974 68.9428 58.7239C68.6928 58.4739 68.3536 58.3334 68 58.3334C67.6464 58.3334 67.3072 58.4739 67.0572 58.7239C66.8071 58.974 66.6667 59.3131 66.6667 59.6667V69.0001C66.6667 69.3537 66.8071 69.6928 67.0572 69.9429C67.3072 70.1929 67.6464 70.3334 68 70.3334C68.3536 70.3334 68.6928 70.1929 68.9428 69.9429C69.1929 69.6928 69.3333 69.3537 69.3333 69.0001V59.6667ZM74.6667 61.0001C75.0203 61.0001 75.3594 61.1406 75.6095 61.3906C75.8595 61.6407 76 61.9798 76 62.3334V69.0001C76 69.3537 75.8595 69.6928 75.6095 69.9429C75.3594 70.1929 75.0203 70.3334 74.6667 70.3334C74.313 70.3334 73.9739 70.1929 73.7239 69.9429C73.4738 69.6928 73.3333 69.3537 73.3333 69.0001V62.3334C73.3333 61.9798 73.4738 61.6407 73.7239 61.3906C73.9739 61.1406 74.313 61.0001 74.6667 61.0001ZM82.6667 55.6667C82.6667 55.3131 82.5262 54.974 82.2761 54.7239C82.0261 54.4739 81.687 54.3334 81.3333 54.3334C80.9797 54.3334 80.6406 54.4739 80.3905 54.7239C80.1405 54.974 80 55.3131 80 55.6667V69.0001C80 69.3537 80.1405 69.6928 80.3905 69.9429C80.6406 70.1929 80.9797 70.3334 81.3333 70.3334C81.687 70.3334 82.0261 70.1929 82.2761 69.9429C82.5262 69.6928 82.6667 69.3537 82.6667 69.0001V55.6667Z" fill="#FC377E"/>
<mask id="mask0_17_62" style="mask-type:alpha" maskUnits="userSpaceOnUse" x="60" y="43" width="26" height="28">
<path d="M78.6667 46.3334C78.313 46.3334 77.9739 46.1929 77.7239 45.9429C77.4738 45.6928 77.3333 45.3537 77.3333 45.0001C77.3333 44.6465 77.4738 44.3073 77.7239 44.0573C77.9739 43.8072 78.313 43.6667 78.6667 43.6667H84C84.3536 43.6667 84.6928 43.8072 84.9428 44.0573C85.1929 44.3073 85.3333 44.6465 85.3333 45.0001V50.3334C85.3333 50.687 85.1929 51.0262 84.9428 51.2762C84.6928 51.5263 84.3536 51.6667 84 51.6667C83.6464 51.6667 83.3072 51.5263 83.0572 51.2762C82.8071 51.0262 82.6667 50.687 82.6667 50.3334V48.2187L74.9427 55.9427C74.6926 56.1927 74.3536 56.3331 74 56.3331C73.6464 56.3331 73.3074 56.1927 73.0573 55.9427L69.3333 52.2187L62.276 59.2761C62.0245 59.519 61.6877 59.6533 61.3381 59.6503C60.9885 59.6473 60.6541 59.507 60.4069 59.2598C60.1597 59.0126 60.0195 58.6782 60.0164 58.3286C60.0134 57.979 60.1478 57.6422 60.3907 57.3907L68.3907 49.3907C68.6407 49.1408 68.9798 49.0004 69.3333 49.0004C69.6869 49.0004 70.026 49.1408 70.276 49.3907L74 53.1147L80.7813 46.3334H78.6667ZM62.6667 65.0001V69.0001C62.6667 69.3537 62.5262 69.6928 62.2761 69.9429C62.0261 70.1929 61.687 70.3334 61.3333 70.3334C60.9797 70.3334 60.6406 70.1929 60.3905 69.9429C60.1405 69.6928 60 69.3537 60 69.0001V65.0001C60 64.6465 60.1405 64.3073 60.3905 64.0573C60.6406 63.8072 60.9797 63.6667 61.3333 63.6667C61.687 63.6667 62.0261 63.8072 62.2761 64.0573C62.5262 64.3073 62.6667 64.6465 62.6667 65.0001ZM69.3333 59.6667C69.3333 59.3131 69.1929 58.974 68.9428 58.7239C68.6928 58.4739 68.3536 58.3334 68 58.3334C67.6464 58.3334 67.3072 58.4739 67.0572 58.7239C66.8071 58.974 66.6667 59.3131 66.6667 59.6667V69.0001C66.6667 69.3537 66.8071 69.6928 67.0572 69.9429C67.3072 70.1929 67.6464 70.3334 68 70.3334C68.3536 70.3334 68.6928 70.1929 68.9428 69.9429C69.1929 69.6928 69.3333 69.3537 69.3333 69.0001V59.6667ZM74.6667 61.0001C75.0203 61.0001 75.3594 61.1406 75.6095 61.3906C75.8595 61.6407 76 61.9798 76 62.3334V69.0001C76 69.3537 75.8595 69.6928 75.6095 69.9429C75.3594 70.1929 75.0203 70.3334 74.6667 70.3334C74.313 70.3334 73.9739 70.1929 73.7239 69.9429C73.4738 69.6928 73.3333 69.3537 73.3333 69.0001V62.3334C73.3333 61.9798 73.4738 61.6407 73.7239 61.3906C73.9739 61.1406 74.313 61.0001 74.6667 61.0001ZM82.6667 55.6667C82.6667 55.3131 82.5262 54.974 82.2761 54.7239C82.0261 54.4739 81.687 54.3334 81.3333 54.3334C80.9797 54.3334 80.6406 54.4739 80.3905 54.7239C80.1405 54.974 80 55.3131 80 55.6667V69.0001C80 69.3537 80.1405 69.6928 80.3905 69.9429C80.6406 70.1929 80.9797 70.3334 81.3333 70.3334C81.687 70.3334 82.0261 70.1929 82.2761 69.9429C82.5262 69.6928 82.6667 69.3537 82.6667 69.0001V55.6667Z" fill="#FC377E"/>
</mask>
<g mask="url(#mask0_17_62)">
<rect x="72" y="60" width="5" height="11" fill="#18AFF0"/>
<rect x="59" y="62" width="5" height="9" fill="#18AFF0"/>
</g>
<defs>
<filter id="filter0_d_17_62" x="0" y="0" width="144" height="144" filterUnits="userSpaceOnUse" color-interpolation-filters="sRGB">
<feFlood flood-opacity="0" result="BackgroundImageFix"/>
<feColorMatrix in="SourceAlpha" type="matrix" values="0 0 0 0 0 0 0 0 0 0 0 0 0 0 0 0 0 0 127 0" result="hardAlpha"/>
<feOffset dy="15"/>
<feGaussianBlur stdDeviation="22"/>
<feColorMatrix type="matrix" values="0 0 0 0 0.0509804 0 0 0 0 0.0588235 0 0 0 0 0.109804 0 0 0 0.12 0"/>
<feBlend mode="normal" in2="BackgroundImageFix" result="effect1_dropShadow_17_62"/>
<feBlend mode="normal" in="SourceGraphic" in2="effect1_dropShadow_17_62" result="shape"/>
</filter>
</defs>
</svg>
