<svg width="80" height="80" viewBox="0 0 80 80" fill="none" xmlns="http://www.w3.org/2000/svg">
<g id="fluent:chat-multiple-heart-32-filled">
<path id="Vector" d="M31.25 7.5C16.7525 7.5 5.00001 19.2525 5.00001 33.75C4.99604 37.8176 5.93928 41.8302 7.75501 45.47L5.13001 55.265C4.95953 55.901 4.95953 56.5708 5.13002 57.2068C5.3005 57.8428 5.63547 58.4228 6.10122 58.8883C6.56697 59.3538 7.14708 59.6884 7.78322 59.8586C8.41935 60.0287 9.08907 60.0283 9.72501 59.8575L19.5125 57.235C23.1562 59.0584 27.1755 60.0052 31.25 60C45.75 60 57.5 48.2475 57.5 33.75C57.5 19.2525 45.75 7.5 31.25 7.5ZM36.1375 63.355C33.8179 63.7345 31.462 63.8419 29.1175 63.675C31.5777 66.4531 34.6004 68.6766 37.985 70.1981C41.3697 71.7195 45.0391 72.5042 48.75 72.5C52.8245 72.5053 56.8439 71.5585 60.4875 69.735L70.275 72.36C70.9111 72.5305 71.5808 72.5305 72.2168 72.36C72.8529 72.1895 73.4328 71.8545 73.8983 71.3888C74.3638 70.923 74.6984 70.3429 74.8686 69.7068C75.0387 69.0707 75.0383 68.4009 74.8675 67.765L72.2425 57.97C74.0625 54.3316 75.0068 50.3182 75 46.25C75.001 41.0716 73.4704 36.0085 70.6007 31.6979C67.731 27.3874 63.6504 24.0219 58.8725 22.025C59.7775 24.1575 60.4475 26.4175 60.84 28.7725C63.6679 30.7263 65.979 33.3377 67.5745 36.3821C69.1701 39.4265 70.0025 42.8128 70 46.25C70.0056 49.8229 69.1059 53.3389 67.385 56.47C67.0744 57.0346 66.9938 57.6974 67.16 58.32L69.4775 66.97L60.8375 64.6525C60.2149 64.4863 59.5521 64.5669 58.9875 64.8775C55.8523 66.6051 52.3297 67.5083 48.75 67.5025C44.2094 67.5086 39.7874 66.056 36.1375 63.355ZM30.1975 25.9375L31.2375 26.975L32.2625 25.95C33.6659 24.5583 35.5637 23.7795 37.5402 23.7841C39.5167 23.7888 41.4107 24.5766 42.8075 25.975C43.5001 26.6616 44.0504 27.4782 44.4268 28.3779C44.8031 29.2776 44.9982 30.2428 45.0007 31.218C45.0033 32.1933 44.8133 33.1595 44.4416 34.0612C44.07 34.9628 43.524 35.7823 42.835 36.4725L32.1025 47.165C31.8871 47.3787 31.596 47.4987 31.2925 47.4987C30.9891 47.4987 30.6979 47.3787 30.4825 47.165L19.695 36.41C19.0019 35.7234 18.4512 34.9066 18.0747 34.0065C17.6981 33.1064 17.5031 32.1408 17.5008 31.1652C17.4984 30.1895 17.6889 29.223 18.0611 28.3212C18.4334 27.4194 18.9802 26.5999 19.67 25.91C21.0721 24.5221 22.9666 23.7459 24.9394 23.751C26.9122 23.7562 28.8027 24.5423 30.1975 25.9375Z" fill="#FC377E"/>
<mask id="mask0_28_403" style="mask-type:alpha" maskUnits="userSpaceOnUse" x="5" y="7" width="70" height="66">
<path id="Vector_2" d="M31.25 7.5C16.7525 7.5 5.00001 19.2525 5.00001 33.75C4.99604 37.8176 5.93928 41.8302 7.75501 45.47L5.13001 55.265C4.95953 55.901 4.95953 56.5708 5.13002 57.2068C5.3005 57.8428 5.63547 58.4228 6.10122 58.8883C6.56697 59.3538 7.14708 59.6884 7.78322 59.8586C8.41935 60.0287 9.08907 60.0283 9.72501 59.8575L19.5125 57.235C23.1562 59.0584 27.1755 60.0052 31.25 60C45.75 60 57.5 48.2475 57.5 33.75C57.5 19.2525 45.75 7.5 31.25 7.5ZM36.1375 63.355C33.8179 63.7345 31.462 63.8419 29.1175 63.675C31.5777 66.4531 34.6004 68.6766 37.985 70.1981C41.3697 71.7195 45.0391 72.5042 48.75 72.5C52.8245 72.5053 56.8439 71.5585 60.4875 69.735L70.275 72.36C70.9111 72.5305 71.5808 72.5305 72.2168 72.36C72.8529 72.1895 73.4328 71.8545 73.8983 71.3888C74.3638 70.923 74.6984 70.3429 74.8686 69.7068C75.0387 69.0707 75.0383 68.4009 74.8675 67.765L72.2425 57.97C74.0625 54.3316 75.0068 50.3182 75 46.25C75.001 41.0716 73.4704 36.0085 70.6007 31.6979C67.731 27.3874 63.6504 24.0219 58.8725 22.025C59.7775 24.1575 60.4475 26.4175 60.84 28.7725C63.6679 30.7263 65.979 33.3377 67.5745 36.3821C69.1701 39.4265 70.0025 42.8128 70 46.25C70.0056 49.8229 69.1059 53.3389 67.385 56.47C67.0744 57.0346 66.9938 57.6974 67.16 58.32L69.4775 66.97L60.8375 64.6525C60.2149 64.4863 59.5521 64.5669 58.9875 64.8775C55.8523 66.6051 52.3297 67.5083 48.75 67.5025C44.2094 67.5086 39.7874 66.056 36.1375 63.355ZM30.1975 25.9375L31.2375 26.975L32.2625 25.95C33.6659 24.5583 35.5637 23.7795 37.5402 23.7841C39.5167 23.7888 41.4107 24.5766 42.8075 25.975C43.5001 26.6616 44.0504 27.4782 44.4268 28.3779C44.8031 29.2776 44.9982 30.2428 45.0007 31.218C45.0033 32.1933 44.8133 33.1595 44.4416 34.0612C44.07 34.9628 43.524 35.7823 42.835 36.4725L32.1025 47.165C31.8871 47.3787 31.596 47.4987 31.2925 47.4987C30.9891 47.4987 30.6979 47.3787 30.4825 47.165L19.695 36.41C19.0019 35.7234 18.4512 34.9066 18.0747 34.0065C17.6981 33.1064 17.5031 32.1408 17.5008 31.1652C17.4984 30.1895 17.6889 29.223 18.0611 28.3212C18.4334 27.4194 18.9802 26.5999 19.67 25.91C21.0721 24.5221 22.9666 23.7459 24.9394 23.751C26.9122 23.7562 28.8027 24.5423 30.1975 25.9375Z" fill="#FC377E"/>
</mask>
<g mask="url(#mask0_28_403)">
<path id="Rectangle 1248" d="M57.5 18H77V76H24V62.5L48.5 60.5L61 52V36L57.5 18Z" fill="#18AFF0"/>
</g>
</g>
</svg>
