<svg width="80" height="80" viewBox="0 0 80 80" fill="none" xmlns="http://www.w3.org/2000/svg">
<g id="fluent:contact-card-ribbon-20-filled">
<path id="Vector" d="M14 16C12.4087 16 10.8826 16.6321 9.75736 17.7574C8.63214 18.8826 8 20.4087 8 22V58C8 59.5913 8.63214 61.1174 9.75736 62.2426C10.8826 63.3679 12.4087 64 14 64H52V62.584C50.2731 60.6219 49.0519 58.2675 48.4426 55.7257C47.8333 53.184 47.8544 50.5318 48.504 48H46C45.4696 48 44.9609 47.7893 44.5858 47.4142C44.2107 47.0391 44 46.5304 44 46C44 45.4696 44.2107 44.9609 44.5858 44.5858C44.9609 44.2107 45.4696 44 46 44H50.14C51.1895 42.1788 52.5878 40.5824 54.2548 39.302C55.9218 38.0216 57.8249 37.0825 59.8552 36.5382C61.8854 35.9939 64.0031 35.8553 66.087 36.1301C68.171 36.405 70.1803 37.088 72 38.14V22C72 20.4087 71.3679 18.8826 70.2426 17.7574C69.1174 16.6321 67.5913 16 66 16H14ZM26 40C24.4087 40 22.8826 39.3679 21.7574 38.2426C20.6321 37.1174 20 35.5913 20 34C20 32.4087 20.6321 30.8826 21.7574 29.7574C22.8826 28.6321 24.4087 28 26 28C27.5913 28 29.1174 28.6321 30.2426 29.7574C31.3679 30.8826 32 32.4087 32 34C32 35.5913 31.3679 37.1174 30.2426 38.2426C29.1174 39.3679 27.5913 40 26 40ZM32.204 43C33.2104 43.0011 34.1754 43.4013 34.887 44.113C35.5987 44.8246 35.9989 45.7896 36 46.796C36 50.184 33.692 53.136 30.404 53.96L30.168 54.02C27.432 54.7 24.568 54.7 21.832 54.02L21.592 53.96C19.9946 53.5604 18.5765 52.6382 17.5633 51.3402C16.5501 50.0422 15.9998 48.4427 16 46.796C16.0011 45.7896 16.4013 44.8246 17.113 44.113C17.8246 43.4013 18.7896 43.0011 19.796 43H32.204ZM44 34C44 33.4696 44.2107 32.9609 44.5858 32.5858C44.9609 32.2107 45.4696 32 46 32H58C58.5304 32 59.0391 32.2107 59.4142 32.5858C59.7893 32.9609 60 33.4696 60 34C60 34.5304 59.7893 35.0391 59.4142 35.4142C59.0391 35.7893 58.5304 36 58 36H46C45.4696 36 44.9609 35.7893 44.5858 35.4142C44.2107 35.0391 44 34.5304 44 34ZM76 52C76 55.1826 74.7357 58.2348 72.4853 60.4853C70.2348 62.7357 67.1826 64 64 64C60.8174 64 57.7652 62.7357 55.5147 60.4853C53.2643 58.2348 52 55.1826 52 52C52 48.8174 53.2643 45.7652 55.5147 43.5147C57.7652 41.2643 60.8174 40 64 40C67.1826 40 70.2348 41.2643 72.4853 43.5147C74.7357 45.7652 76 48.8174 76 52ZM72 65.86C69.5687 67.2662 66.8087 68.0045 64 68C61.1913 68.0045 58.4313 67.2662 56 65.86V75C55.9998 75.1768 56.0465 75.3505 56.1353 75.5034C56.2242 75.6562 56.3519 75.7828 56.5056 75.8702C56.6593 75.9577 56.8334 76.0028 57.0102 76.001C57.187 75.9992 57.3601 75.9505 57.512 75.86L64 72L70.488 75.86C70.6399 75.9505 70.813 75.9992 70.9898 76.001C71.1666 76.0028 71.3407 75.9577 71.4944 75.8702C71.6481 75.7828 71.7758 75.6562 71.8647 75.5034C71.9535 75.3505 72.0002 75.1768 72 75V65.86Z" fill="#18AFF0"/>
<mask id="mask0_28_407" style="mask-type:alpha" maskUnits="userSpaceOnUse" x="8" y="16" width="68" height="61">
<path id="Vector_2" d="M14 16C12.4087 16 10.8826 16.6321 9.75736 17.7574C8.63214 18.8826 8 20.4087 8 22V58C8 59.5913 8.63214 61.1174 9.75736 62.2426C10.8826 63.3679 12.4087 64 14 64H52V62.584C50.2731 60.6219 49.0519 58.2675 48.4426 55.7257C47.8333 53.184 47.8544 50.5318 48.504 48H46C45.4696 48 44.9609 47.7893 44.5858 47.4142C44.2107 47.0391 44 46.5304 44 46C44 45.4696 44.2107 44.9609 44.5858 44.5858C44.9609 44.2107 45.4696 44 46 44H50.14C51.1895 42.1788 52.5878 40.5824 54.2548 39.302C55.9218 38.0216 57.8249 37.0825 59.8552 36.5382C61.8854 35.9939 64.0031 35.8553 66.087 36.1301C68.171 36.405 70.1803 37.088 72 38.14V22C72 20.4087 71.3679 18.8826 70.2426 17.7574C69.1174 16.6321 67.5913 16 66 16H14ZM26 40C24.4087 40 22.8826 39.3679 21.7574 38.2426C20.6321 37.1174 20 35.5913 20 34C20 32.4087 20.6321 30.8826 21.7574 29.7574C22.8826 28.6321 24.4087 28 26 28C27.5913 28 29.1174 28.6321 30.2426 29.7574C31.3679 30.8826 32 32.4087 32 34C32 35.5913 31.3679 37.1174 30.2426 38.2426C29.1174 39.3679 27.5913 40 26 40ZM32.204 43C33.2104 43.0011 34.1754 43.4013 34.887 44.113C35.5987 44.8246 35.9989 45.7896 36 46.796C36 50.184 33.692 53.136 30.404 53.96L30.168 54.02C27.432 54.7 24.568 54.7 21.832 54.02L21.592 53.96C19.9946 53.5604 18.5765 52.6382 17.5633 51.3402C16.5501 50.0422 15.9998 48.4427 16 46.796C16.0011 45.7896 16.4013 44.8246 17.113 44.113C17.8246 43.4013 18.7896 43.0011 19.796 43H32.204ZM44 34C44 33.4696 44.2107 32.9609 44.5858 32.5858C44.9609 32.2107 45.4696 32 46 32H58C58.5304 32 59.0391 32.2107 59.4142 32.5858C59.7893 32.9609 60 33.4696 60 34C60 34.5304 59.7893 35.0391 59.4142 35.4142C59.0391 35.7893 58.5304 36 58 36H46C45.4696 36 44.9609 35.7893 44.5858 35.4142C44.2107 35.0391 44 34.5304 44 34ZM76 52C76 55.1826 74.7357 58.2348 72.4853 60.4853C70.2348 62.7357 67.1826 64 64 64C60.8174 64 57.7652 62.7357 55.5147 60.4853C53.2643 58.2348 52 55.1826 52 52C52 48.8174 53.2643 45.7652 55.5147 43.5147C57.7652 41.2643 60.8174 40 64 40C67.1826 40 70.2348 41.2643 72.4853 43.5147C74.7357 45.7652 76 48.8174 76 52ZM72 65.86C69.5687 67.2662 66.8087 68.0045 64 68C61.1913 68.0045 58.4313 67.2662 56 65.86V75C55.9998 75.1768 56.0465 75.3505 56.1353 75.5034C56.2242 75.6562 56.3519 75.7828 56.5056 75.8702C56.6593 75.9577 56.8334 76.0028 57.0102 76.001C57.187 75.9992 57.3601 75.9505 57.512 75.86L64 72L70.488 75.86C70.6399 75.9505 70.813 75.9992 70.9898 76.001C71.1666 76.0028 71.3407 75.9577 71.4944 75.8702C71.6481 75.7828 71.7758 75.6562 71.8647 75.5034C71.9535 75.3505 72.0002 75.1768 72 75V65.86Z" fill="#18AFF0"/>
</mask>
<g mask="url(#mask0_28_407)">
<path id="Rectangle 1249" d="M51 50.5C51 43.5964 56.5964 38 63.5 38C70.4036 38 76 43.5964 76 50.5V76H51L54 64.5L51 56.5V50.5Z" fill="#FC377E"/>
</g>
</g>
</svg>
