<svg width="80" height="80" viewBox="0 0 80 80" fill="none" xmlns="http://www.w3.org/2000/svg">
<g id="fluent:globe-video-24-filled">
<path id="Vector" d="M29.6833 55.0001H36.67V71.7501C33.9033 69.1301 31.4033 63.4301 29.8767 55.9834L29.6833 55.0001ZM28.9167 50.0001H36.8333C37.2176 48.1178 38.2403 46.4261 39.7285 45.2112C41.2167 43.9964 43.0789 43.333 45 43.3334H51.61C51.7375 39.998 51.673 36.6581 51.4167 33.3301H28.5867L28.4767 34.9601C28.1868 39.9767 28.334 45.009 28.9167 50.0001ZM72.2267 45.6167C72.4567 45.4634 72.6933 45.3334 72.93 45.2234C73.5511 41.275 73.463 37.2475 72.67 33.3301H56.4367L56.57 35.5167C56.6904 38.1207 56.7037 40.7284 56.61 43.3334H61.6667C63.1791 43.3329 64.6631 43.744 65.9597 44.5227C67.2562 45.3013 68.3164 46.4181 69.0267 47.7534L72.2267 45.6167ZM10.2267 55.0001H24.5733C25.79 61.9434 27.85 67.8467 30.55 71.9801C22.0756 69.4636 14.9431 63.6926 10.7133 55.9301L10.2233 55.0001H10.2267ZM7.33333 33.3334H23.5667C23.218 38.2398 23.2548 43.1661 23.6767 48.0667L23.8667 50.0001H8.19333C6.50528 44.606 6.20944 38.8726 7.33333 33.3334ZM49.8167 8.58675L49.4567 8.02008C54.411 9.49114 58.9567 12.0912 62.7364 15.6158C66.5162 19.1405 69.4269 23.4937 71.24 28.3334H55.94C54.8867 20.2767 52.75 13.3567 49.8167 8.58675ZM30.1433 8.14341L30.5467 8.02008C27.6133 12.5201 25.43 19.1201 24.2733 26.8667L24.0667 28.3334H8.76667C10.555 23.5612 13.4108 19.261 17.1158 15.7617C20.8208 12.2624 25.2768 9.65653 30.1433 8.14341ZM40 6.66675C44.3933 6.66675 48.8167 15.1401 50.71 27.2801L50.8667 28.3301H29.1333C30.9267 15.6301 35.4767 6.66675 40 6.66675ZM40 51.6667C40 50.3407 40.5268 49.0689 41.4645 48.1312C42.4021 47.1935 43.6739 46.6667 45 46.6667H61.6667C62.9927 46.6667 64.2645 47.1935 65.2022 48.1312C66.1399 49.0689 66.6667 50.3407 66.6667 51.6667V53.3334L74.0733 48.3901C74.3246 48.2229 74.6164 48.1271 74.9179 48.1128C75.2193 48.0985 75.5189 48.1664 75.7848 48.3091C76.0507 48.4518 76.2728 48.664 76.4276 48.923C76.5823 49.1821 76.6638 49.4783 76.6633 49.7801V73.5534C76.6632 73.8549 76.5813 74.1507 76.4263 74.4093C76.2713 74.6679 76.0491 74.8796 75.7833 75.0219C75.5176 75.1642 75.2182 75.2317 74.917 75.2173C74.6159 75.2029 74.3243 75.1071 74.0733 74.9401L66.6667 70.0001V71.6667C66.6667 72.9928 66.1399 74.2646 65.2022 75.2023C64.2645 76.14 62.9927 76.6667 61.6667 76.6667H45C43.6745 76.6659 42.4036 76.1387 41.4666 75.2011C40.5297 74.2635 40.0033 72.9922 40.0033 71.6667V51.6667H40Z" fill="#18AFF0"/>
<mask id="mask0_28_409" style="mask-type:alpha" maskUnits="userSpaceOnUse" x="6" y="6" width="71" height="71">
<path id="Vector_2" d="M29.6833 55.0001H36.67V71.7501C33.9033 69.1301 31.4033 63.4301 29.8767 55.9834L29.6833 55.0001ZM28.9167 50.0001H36.8333C37.2176 48.1178 38.2403 46.4261 39.7285 45.2112C41.2167 43.9964 43.0789 43.333 45 43.3334H51.61C51.7375 39.998 51.673 36.6581 51.4167 33.3301H28.5867L28.4767 34.9601C28.1868 39.9767 28.334 45.009 28.9167 50.0001ZM72.2267 45.6167C72.4567 45.4634 72.6933 45.3334 72.93 45.2234C73.5511 41.275 73.463 37.2475 72.67 33.3301H56.4367L56.57 35.5167C56.6904 38.1207 56.7037 40.7284 56.61 43.3334H61.6667C63.1791 43.3329 64.6631 43.744 65.9597 44.5227C67.2562 45.3013 68.3164 46.4181 69.0267 47.7534L72.2267 45.6167ZM10.2267 55.0001H24.5733C25.79 61.9434 27.85 67.8467 30.55 71.9801C22.0756 69.4636 14.9431 63.6926 10.7133 55.9301L10.2233 55.0001H10.2267ZM7.33333 33.3334H23.5667C23.218 38.2398 23.2548 43.1661 23.6767 48.0667L23.8667 50.0001H8.19333C6.50528 44.606 6.20944 38.8726 7.33333 33.3334ZM49.8167 8.58675L49.4567 8.02008C54.411 9.49114 58.9567 12.0912 62.7364 15.6158C66.5162 19.1405 69.4269 23.4937 71.24 28.3334H55.94C54.8867 20.2767 52.75 13.3567 49.8167 8.58675ZM30.1433 8.14341L30.5467 8.02008C27.6133 12.5201 25.43 19.1201 24.2733 26.8667L24.0667 28.3334H8.76667C10.555 23.5612 13.4108 19.261 17.1158 15.7617C20.8208 12.2624 25.2768 9.65653 30.1433 8.14341ZM40 6.66675C44.3933 6.66675 48.8167 15.1401 50.71 27.2801L50.8667 28.3301H29.1333C30.9267 15.6301 35.4767 6.66675 40 6.66675ZM40 51.6667C40 50.3407 40.5268 49.0689 41.4645 48.1312C42.4021 47.1935 43.6739 46.6667 45 46.6667H61.6667C62.9927 46.6667 64.2645 47.1935 65.2022 48.1312C66.1399 49.0689 66.6667 50.3407 66.6667 51.6667V53.3334L74.0733 48.3901C74.3246 48.2229 74.6164 48.1271 74.9179 48.1128C75.2193 48.0985 75.5189 48.1664 75.7848 48.3091C76.0507 48.4518 76.2728 48.664 76.4276 48.923C76.5823 49.1821 76.6638 49.4783 76.6633 49.7801V73.5534C76.6632 73.8549 76.5813 74.1507 76.4263 74.4093C76.2713 74.6679 76.0491 74.8796 75.7833 75.0219C75.5176 75.1642 75.2182 75.2317 74.917 75.2173C74.6159 75.2029 74.3243 75.1071 74.0733 74.9401L66.6667 70.0001V71.6667C66.6667 72.9928 66.1399 74.2646 65.2022 75.2023C64.2645 76.14 62.9927 76.6667 61.6667 76.6667H45C43.6745 76.6659 42.4036 76.1387 41.4666 75.2011C40.5297 74.2635 40.0033 72.9922 40.0033 71.6667V51.6667H40Z" fill="#FC377E"/>
</mask>
<g mask="url(#mask0_28_409)">
<path id="Rectangle 1247" d="M39 51C39 48.2386 41.2386 46 44 46H65.5L68.5 49.5L78 46V78H39V51Z" fill="#FC377E"/>
</g>
</g>
</svg>
