<svg width="80" height="80" viewBox="0 0 80 80" fill="none" xmlns="http://www.w3.org/2000/svg">
<g id="fluent:gift-card-money-20-filled">
<path id="Vector" d="M28 8H19C16.0826 8 13.2847 9.15893 11.2218 11.2218C9.15893 13.2847 8 16.0826 8 19V28H17.072C16.1916 26.4749 15.839 24.7019 16.069 22.956C16.2989 21.2101 17.0984 19.5888 18.3436 18.3436C19.5888 17.0984 21.2101 16.2989 22.956 16.069C24.7019 15.839 26.4749 16.1916 28 17.072V8ZM32 24V28H36C36.7911 28 37.5645 27.7654 38.2223 27.3259C38.8801 26.8864 39.3928 26.2616 39.6955 25.5307C39.9983 24.7998 40.0775 23.9956 39.9231 23.2196C39.7688 22.4437 39.3878 21.731 38.8284 21.1716C38.269 20.6122 37.5563 20.2312 36.7804 20.0769C36.0044 19.9225 35.2002 20.0017 34.4693 20.3045C33.7384 20.6072 33.1136 21.1199 32.6741 21.7777C32.2346 22.4355 32 23.2089 32 24ZM42.928 28C43.8084 26.4749 44.161 24.7019 43.931 22.956C43.7011 21.2101 42.9016 19.5888 41.6564 18.3436C40.4112 17.0984 38.7899 16.2989 37.044 16.069C35.2981 15.839 33.5251 16.1916 32 17.072V8H61C63.9174 8 66.7153 9.15893 68.7782 11.2218C70.8411 13.2847 72 16.0826 72 19V28H42.928ZM34.828 32L41.416 38.584C41.7915 38.9595 42.0025 39.4689 42.0025 40C42.0025 40.5311 41.7915 41.0405 41.416 41.416C41.0405 41.7915 40.5311 42.0025 40 42.0025C39.4689 42.0025 38.9595 41.7915 38.584 41.416L32 34.828V56H36V54C36 51.3478 37.0536 48.8043 38.9289 46.9289C40.8043 45.0536 43.3478 44 46 44H70C70.684 44 71.352 44.068 72 44.2V32H34.828ZM28 56V34.828L21.416 41.416C21.0405 41.7915 20.5311 42.0025 20 42.0025C19.4689 42.0025 18.9595 41.7915 18.584 41.416C18.2085 41.0405 17.9975 40.5311 17.9975 40C17.9975 39.4689 18.2085 38.9595 18.584 38.584L25.172 32H8V45C8 47.9174 9.15893 50.7153 11.2218 52.7782C13.2847 54.8411 16.0826 56 19 56H28ZM28 24C28 23.2089 27.7654 22.4355 27.3259 21.7777C26.8864 21.1199 26.2616 20.6072 25.5307 20.3045C24.7998 20.0017 23.9956 19.9225 23.2196 20.0769C22.4437 20.2312 21.731 20.6122 21.1716 21.1716C20.6122 21.731 20.2312 22.4437 20.0769 23.2196C19.9225 23.9956 20.0017 24.7998 20.3045 25.5307C20.6072 26.2616 21.1199 26.8864 21.7777 27.3259C22.4355 27.7654 23.2089 28 24 28H28V24ZM76 54V66C76 67.5913 75.3679 69.1174 74.2426 70.2426C73.1174 71.3679 71.5913 72 70 72H46C44.4087 72 42.8826 71.3679 41.7574 70.2426C40.6321 69.1174 40 67.5913 40 66V54C40 52.4087 40.6321 50.8826 41.7574 49.7574C42.8826 48.6321 44.4087 48 46 48H70C71.5913 48 73.1174 48.6321 74.2426 49.7574C75.3679 50.8826 76 52.4087 76 54ZM72 66V62C70.4087 62 68.8826 62.6321 67.7574 63.7574C66.6321 64.8826 66 66.4087 66 68H70C70 67.4696 70.2107 66.9609 70.5858 66.5858C70.9609 66.2107 71.4696 66 72 66ZM70 52H66C66 53.5913 66.6321 55.1174 67.7574 56.2426C68.8826 57.3679 70.4087 58 72 58V54C71.4696 54 70.9609 53.7893 70.5858 53.4142C70.2107 53.0391 70 52.5304 70 52ZM46 52C46 52.5304 45.7893 53.0391 45.4142 53.4142C45.0391 53.7893 44.5304 54 44 54V58C45.5913 58 47.1174 57.3679 48.2426 56.2426C49.3679 55.1174 50 53.5913 50 52H46ZM44 66C44.5304 66 45.0391 66.2107 45.4142 66.5858C45.7893 66.9609 46 67.4696 46 68H50C50 66.4087 49.3679 64.8826 48.2426 63.7574C47.1174 62.6321 45.5913 62 44 62V66ZM58 54C56.4087 54 54.8826 54.6321 53.7574 55.7574C52.6321 56.8826 52 58.4087 52 60C52 61.5913 52.6321 63.1174 53.7574 64.2426C54.8826 65.3679 56.4087 66 58 66C59.5913 66 61.1174 65.3679 62.2426 64.2426C63.3679 63.1174 64 61.5913 64 60C64 58.4087 63.3679 56.8826 62.2426 55.7574C61.1174 54.6321 59.5913 54 58 54Z" fill="#FC377E"/>
<mask id="mask0_28_405" style="mask-type:alpha" maskUnits="userSpaceOnUse" x="8" y="8" width="68" height="64">
<path id="Vector_2" d="M28 8H19C16.0826 8 13.2847 9.15893 11.2218 11.2218C9.15893 13.2847 8 16.0826 8 19V28H17.072C16.1916 26.4749 15.839 24.7019 16.069 22.956C16.2989 21.2101 17.0984 19.5888 18.3436 18.3436C19.5888 17.0984 21.2101 16.2989 22.956 16.069C24.7019 15.839 26.4749 16.1916 28 17.072V8ZM32 24V28H36C36.7911 28 37.5645 27.7654 38.2223 27.3259C38.8801 26.8864 39.3928 26.2616 39.6955 25.5307C39.9983 24.7998 40.0775 23.9956 39.9231 23.2196C39.7688 22.4437 39.3878 21.731 38.8284 21.1716C38.269 20.6122 37.5563 20.2312 36.7804 20.0769C36.0044 19.9225 35.2002 20.0017 34.4693 20.3045C33.7384 20.6072 33.1136 21.1199 32.6741 21.7777C32.2346 22.4355 32 23.2089 32 24ZM42.928 28C43.8084 26.4749 44.161 24.7019 43.931 22.956C43.7011 21.2101 42.9016 19.5888 41.6564 18.3436C40.4112 17.0984 38.7899 16.2989 37.044 16.069C35.2981 15.839 33.5251 16.1916 32 17.072V8H61C63.9174 8 66.7153 9.15893 68.7782 11.2218C70.8411 13.2847 72 16.0826 72 19V28H42.928ZM34.828 32L41.416 38.584C41.7915 38.9595 42.0025 39.4689 42.0025 40C42.0025 40.5311 41.7915 41.0405 41.416 41.416C41.0405 41.7915 40.5311 42.0025 40 42.0025C39.4689 42.0025 38.9595 41.7915 38.584 41.416L32 34.828V56H36V54C36 51.3478 37.0536 48.8043 38.9289 46.9289C40.8043 45.0536 43.3478 44 46 44H70C70.684 44 71.352 44.068 72 44.2V32H34.828ZM28 56V34.828L21.416 41.416C21.0405 41.7915 20.5311 42.0025 20 42.0025C19.4689 42.0025 18.9595 41.7915 18.584 41.416C18.2085 41.0405 17.9975 40.5311 17.9975 40C17.9975 39.4689 18.2085 38.9595 18.584 38.584L25.172 32H8V45C8 47.9174 9.15893 50.7153 11.2218 52.7782C13.2847 54.8411 16.0826 56 19 56H28ZM28 24C28 23.2089 27.7654 22.4355 27.3259 21.7777C26.8864 21.1199 26.2616 20.6072 25.5307 20.3045C24.7998 20.0017 23.9956 19.9225 23.2196 20.0769C22.4437 20.2312 21.731 20.6122 21.1716 21.1716C20.6122 21.731 20.2312 22.4437 20.0769 23.2196C19.9225 23.9956 20.0017 24.7998 20.3045 25.5307C20.6072 26.2616 21.1199 26.8864 21.7777 27.3259C22.4355 27.7654 23.2089 28 24 28H28V24ZM76 54V66C76 67.5913 75.3679 69.1174 74.2426 70.2426C73.1174 71.3679 71.5913 72 70 72H46C44.4087 72 42.8826 71.3679 41.7574 70.2426C40.6321 69.1174 40 67.5913 40 66V54C40 52.4087 40.6321 50.8826 41.7574 49.7574C42.8826 48.6321 44.4087 48 46 48H70C71.5913 48 73.1174 48.6321 74.2426 49.7574C75.3679 50.8826 76 52.4087 76 54ZM72 66V62C70.4087 62 68.8826 62.6321 67.7574 63.7574C66.6321 64.8826 66 66.4087 66 68H70C70 67.4696 70.2107 66.9609 70.5858 66.5858C70.9609 66.2107 71.4696 66 72 66ZM70 52H66C66 53.5913 66.6321 55.1174 67.7574 56.2426C68.8826 57.3679 70.4087 58 72 58V54C71.4696 54 70.9609 53.7893 70.5858 53.4142C70.2107 53.0391 70 52.5304 70 52ZM46 52C46 52.5304 45.7893 53.0391 45.4142 53.4142C45.0391 53.7893 44.5304 54 44 54V58C45.5913 58 47.1174 57.3679 48.2426 56.2426C49.3679 55.1174 50 53.5913 50 52H46ZM44 66C44.5304 66 45.0391 66.2107 45.4142 66.5858C45.7893 66.9609 46 67.4696 46 68H50C50 66.4087 49.3679 64.8826 48.2426 63.7574C47.1174 62.6321 45.5913 62 44 62V66ZM58 54C56.4087 54 54.8826 54.6321 53.7574 55.7574C52.6321 56.8826 52 58.4087 52 60C52 61.5913 52.6321 63.1174 53.7574 64.2426C54.8826 65.3679 56.4087 66 58 66C59.5913 66 61.1174 65.3679 62.2426 64.2426C63.3679 63.1174 64 61.5913 64 60C64 58.4087 63.3679 56.8826 62.2426 55.7574C61.1174 54.6321 59.5913 54 58 54Z" fill="#18AFF0"/>
</mask>
<g mask="url(#mask0_28_405)">
<rect id="Rectangle 1246" x="38" y="47" width="40" height="27" rx="4" fill="#18AFF0"/>
</g>
</g>
</svg>
