<svg width="80" height="80" viewBox="0 0 80 80" fill="none" xmlns="http://www.w3.org/2000/svg">
<g id="fluent:chat-sparkle-20-filled" clip-path="url(#clip0_28_411)">
<path id="Vector" d="M59.512 1.12798L60.904 5.41198C61.3375 6.71469 62.0691 7.8982 63.0406 8.86832C64.0121 9.83844 65.1967 10.5684 66.5 11L70.784 12.392L70.868 12.416C71.1984 12.5323 71.4846 12.7483 71.687 13.0342C71.8895 13.32 71.9982 13.6617 71.9982 14.012C71.9982 14.3623 71.8895 14.7039 71.687 14.9898C71.4846 15.2757 71.1984 15.4917 70.868 15.608L66.584 17C65.2811 17.4324 64.097 18.1627 63.1256 19.1327C62.1542 20.1026 61.4223 21.2857 60.988 22.588L59.596 26.868C59.4797 27.1984 59.2637 27.4846 58.9778 27.687C58.6919 27.8894 58.3503 27.9982 58 27.9982C57.6497 27.9982 57.3081 27.8894 57.0222 27.687C56.7363 27.4846 56.5203 27.1984 56.404 26.868L55.008 22.588C54.5753 21.2835 53.847 20.0966 52.88 19.12C51.9067 18.147 50.721 17.4131 49.416 16.976L45.132 15.584C44.8016 15.4677 44.5154 15.2517 44.313 14.9658C44.1105 14.6799 44.0018 14.3383 44.0018 13.988C44.0018 13.6377 44.1105 13.296 44.313 13.0102C44.5154 12.7243 44.8016 12.5083 45.132 12.392L49.416 11C50.7026 10.5559 51.8692 9.82054 52.8246 8.85121C53.7801 7.88188 54.4986 6.70484 54.924 5.41198L56.316 1.13198C56.4315 0.800177 56.6474 0.512544 56.9337 0.308999C57.2201 0.105454 57.5627 -0.00390625 57.914 -0.00390625C58.2653 -0.00390625 58.6079 0.105454 58.8943 0.308999C59.1806 0.512544 59.3965 0.796177 59.512 1.12798ZM79.132 32.852L76.068 31.86C75.1378 31.55 74.2927 31.0274 73.5997 30.3338C72.9068 29.6401 72.3851 28.7945 72.076 27.864L71.076 24.808C70.9932 24.5717 70.839 24.367 70.6348 24.2222C70.4305 24.0774 70.1864 23.9996 69.936 23.9996C69.6856 23.9996 69.4415 24.0774 69.2372 24.2222C69.033 24.367 68.8788 24.5717 68.796 24.808L67.804 27.864C67.5009 28.7886 66.9878 29.6306 66.3049 30.3238C65.622 31.0171 64.788 31.5429 63.868 31.86L60.808 32.852C60.5735 32.9366 60.3709 33.0915 60.2276 33.2955C60.0844 33.4995 60.0075 33.7427 60.0075 33.992C60.0075 34.2413 60.0844 34.4845 60.2276 34.6885C60.3709 34.8925 60.5735 35.0473 60.808 35.132L63.868 36.128C64.8008 36.4384 65.6482 36.9624 66.3427 37.6583C67.0371 38.3541 67.5594 39.2026 67.868 40.136L68.86 43.192C68.9428 43.4283 69.097 43.633 69.3012 43.7778C69.5055 43.9226 69.7496 44.0004 70 44.0004C70.2504 44.0004 70.4945 43.9226 70.6988 43.7778C70.903 43.633 71.0572 43.4283 71.14 43.192L72.136 40.136C72.4452 39.2049 72.9674 38.3588 73.6611 37.6651C74.3549 36.9714 75.2009 36.4492 76.132 36.14L79.192 35.148C79.4265 35.0633 79.6291 34.9085 79.7724 34.7045C79.9156 34.5005 79.9925 34.2573 79.9925 34.008C79.9925 33.7587 79.9156 33.5155 79.7724 33.3115C79.6291 33.1075 79.4265 32.9526 79.192 32.868L79.132 32.852ZM70.008 48C68.9436 47.9992 67.904 47.6787 67.024 47.08C66.144 46.44 65.504 45.596 65.104 44.596L64.064 41.388C63.9551 41.0518 63.7624 40.749 63.504 40.508C63.2525 40.2625 62.9529 40.0719 62.624 39.948L59.576 38.948C58.496 38.548 57.616 37.904 56.976 37.024C56.336 36.144 56.016 35.1 56.016 34.016C56.016 33.256 56.176 32.496 56.496 31.816C55.8483 31.6524 55.2375 31.3673 54.696 30.976C53.7459 30.2766 53.0214 29.3144 52.612 28.208L51.172 23.84C50.812 22.92 50.452 22.4 50.012 21.96C49.474 21.4423 48.8317 21.0454 48.128 20.796L43.884 19.396C42.684 18.996 41.724 18.232 41.044 17.268C40.364 16.308 40 15.188 40 13.988C40 12.784 40.36 11.66 41.04 10.7C41.72 9.73998 42.68 9.01998 43.8 8.61598L44.668 8.33598C40.1198 7.66534 35.4805 7.98259 31.0659 9.26613C26.6514 10.5497 22.5652 12.7694 19.0856 15.7741C15.606 18.7788 12.8147 22.498 10.9018 26.6785C8.98881 30.859 7.9991 35.4026 8 40L8.028 41.384L8.132 42.912C8.49351 46.937 9.61893 50.8563 11.448 54.46L11.7 54.94L8.06 69.516L8.004 69.848V70.176C8.02941 70.4642 8.11704 70.7435 8.26086 70.9945C8.40468 71.2456 8.60126 71.4624 8.83703 71.6301C9.07281 71.7978 9.34216 71.9124 9.6265 71.9659C9.91084 72.0194 10.2034 72.0105 10.484 71.94L25.064 68.3L25.544 68.556C29.8194 70.719 34.5259 71.8947 39.3163 71.9964C44.1067 72.098 48.8588 71.123 53.2221 69.1433C57.5855 67.1635 61.4488 64.2295 64.5271 60.5577C67.6053 56.8859 69.8201 52.5699 71.008 47.928C70.6768 47.9757 70.3426 47.9998 70.008 48Z" fill="#FC377E"/>
<mask id="mask0_28_411" style="mask-type:alpha" maskUnits="userSpaceOnUse" x="8" y="-1" width="72" height="74">
<path id="Vector_2" d="M59.512 1.12798L60.904 5.41198C61.3375 6.71469 62.0691 7.8982 63.0406 8.86832C64.0121 9.83844 65.1967 10.5684 66.5 11L70.784 12.392L70.868 12.416C71.1984 12.5323 71.4846 12.7483 71.687 13.0342C71.8895 13.32 71.9982 13.6617 71.9982 14.012C71.9982 14.3623 71.8895 14.7039 71.687 14.9898C71.4846 15.2757 71.1984 15.4917 70.868 15.608L66.584 17C65.2811 17.4324 64.097 18.1627 63.1256 19.1327C62.1542 20.1026 61.4223 21.2857 60.988 22.588L59.596 26.868C59.4797 27.1984 59.2637 27.4846 58.9778 27.687C58.6919 27.8894 58.3503 27.9982 58 27.9982C57.6497 27.9982 57.3081 27.8894 57.0222 27.687C56.7363 27.4846 56.5203 27.1984 56.404 26.868L55.008 22.588C54.5753 21.2835 53.847 20.0966 52.88 19.12C51.9067 18.147 50.721 17.4131 49.416 16.976L45.132 15.584C44.8016 15.4677 44.5154 15.2517 44.313 14.9658C44.1105 14.6799 44.0018 14.3383 44.0018 13.988C44.0018 13.6377 44.1105 13.296 44.313 13.0102C44.5154 12.7243 44.8016 12.5083 45.132 12.392L49.416 11C50.7026 10.5559 51.8692 9.82054 52.8246 8.85121C53.7801 7.88188 54.4986 6.70484 54.924 5.41198L56.316 1.13198C56.4315 0.800177 56.6474 0.512544 56.9337 0.308999C57.2201 0.105454 57.5627 -0.00390625 57.914 -0.00390625C58.2653 -0.00390625 58.6079 0.105454 58.8943 0.308999C59.1806 0.512544 59.3965 0.796177 59.512 1.12798ZM79.132 32.852L76.068 31.86C75.1378 31.55 74.2927 31.0274 73.5997 30.3338C72.9068 29.6401 72.3851 28.7945 72.076 27.864L71.076 24.808C70.9932 24.5717 70.839 24.367 70.6348 24.2222C70.4305 24.0774 70.1864 23.9996 69.936 23.9996C69.6856 23.9996 69.4415 24.0774 69.2372 24.2222C69.033 24.367 68.8788 24.5717 68.796 24.808L67.804 27.864C67.5009 28.7886 66.9878 29.6306 66.3049 30.3238C65.622 31.0171 64.788 31.5429 63.868 31.86L60.808 32.852C60.5735 32.9366 60.3709 33.0915 60.2276 33.2955C60.0844 33.4995 60.0075 33.7427 60.0075 33.992C60.0075 34.2413 60.0844 34.4845 60.2276 34.6885C60.3709 34.8925 60.5735 35.0473 60.808 35.132L63.868 36.128C64.8008 36.4384 65.6482 36.9624 66.3427 37.6583C67.0371 38.3541 67.5594 39.2026 67.868 40.136L68.86 43.192C68.9428 43.4283 69.097 43.633 69.3012 43.7778C69.5055 43.9226 69.7496 44.0004 70 44.0004C70.2504 44.0004 70.4945 43.9226 70.6988 43.7778C70.903 43.633 71.0572 43.4283 71.14 43.192L72.136 40.136C72.4452 39.2049 72.9674 38.3588 73.6611 37.6651C74.3549 36.9714 75.2009 36.4492 76.132 36.14L79.192 35.148C79.4265 35.0633 79.6291 34.9085 79.7724 34.7045C79.9156 34.5005 79.9925 34.2573 79.9925 34.008C79.9925 33.7587 79.9156 33.5155 79.7724 33.3115C79.6291 33.1075 79.4265 32.9526 79.192 32.868L79.132 32.852ZM70.008 48C68.9436 47.9992 67.904 47.6787 67.024 47.08C66.144 46.44 65.504 45.596 65.104 44.596L64.064 41.388C63.9551 41.0518 63.7624 40.749 63.504 40.508C63.2525 40.2625 62.9529 40.0719 62.624 39.948L59.576 38.948C58.496 38.548 57.616 37.904 56.976 37.024C56.336 36.144 56.016 35.1 56.016 34.016C56.016 33.256 56.176 32.496 56.496 31.816C55.8483 31.6524 55.2375 31.3673 54.696 30.976C53.7459 30.2766 53.0214 29.3144 52.612 28.208L51.172 23.84C50.812 22.92 50.452 22.4 50.012 21.96C49.474 21.4423 48.8317 21.0454 48.128 20.796L43.884 19.396C42.684 18.996 41.724 18.232 41.044 17.268C40.364 16.308 40 15.188 40 13.988C40 12.784 40.36 11.66 41.04 10.7C41.72 9.73998 42.68 9.01998 43.8 8.61598L44.668 8.33598C40.1198 7.66534 35.4805 7.98259 31.0659 9.26613C26.6514 10.5497 22.5652 12.7694 19.0856 15.7741C15.606 18.7788 12.8147 22.498 10.9018 26.6785C8.98881 30.859 7.9991 35.4026 8 40L8.028 41.384L8.132 42.912C8.49351 46.937 9.61893 50.8563 11.448 54.46L11.7 54.94L8.06 69.516L8.004 69.848V70.176C8.02941 70.4642 8.11704 70.7435 8.26086 70.9945C8.40468 71.2456 8.60126 71.4624 8.83703 71.6301C9.07281 71.7978 9.34216 71.9124 9.6265 71.9659C9.91084 72.0194 10.2034 72.0105 10.484 71.94L25.064 68.3L25.544 68.556C29.8194 70.719 34.5259 71.8947 39.3163 71.9964C44.1067 72.098 48.8588 71.123 53.2221 69.1433C57.5855 67.1635 61.4488 64.2295 64.5271 60.5577C67.6053 56.8859 69.8201 52.5699 71.008 47.928C70.6768 47.9757 70.3426 47.9998 70.008 48Z" fill="#FC377E"/>
</mask>
<g mask="url(#mask0_28_411)">
<path id="Vector 11" d="M49.5 7.5C50.7 6.7 55.3333 0.166667 57.5 -3L81.5 7.5L82.5 38.5L69 46L65.5 39.5L59 36C58.5 34.3333 57.1 30.3 55.5 27.5L51 20C48.8333 19.1667 44.2 17.3 43 16.5C41.8 15.7 41.5 14.1667 41.5 13.5C43.6667 11.8333 48.3 8.3 49.5 7.5Z" fill="#18AFF0"/>
</g>
</g>
<defs>
<clipPath id="clip0_28_411">
<rect width="80" height="80" fill="white"/>
</clipPath>
</defs>
</svg>
